<svg
  xmlns="http://www.w3.org/2000/svg"
  width="100%"
  height="100%"
  viewBox="0 0 72 15"
  fill="none"
>
  <mask
    id="mask0_55_2298"
    style="mask-type: luminance"
    maskUnits="userSpaceOnUse"
    x="11"
    y="0"
    width="17"
    height="15"
  >
    <path d="M11 0H27.1V14.6515H11V0Z" fill="white" />
  </mask>
  <g mask="url(#mask0_55_2298)">
    <path
      d="M27.091 -6.48499e-05H13.8064L11.0005 14.649H19.3868C22.7135 14.6266 24.7819 11.9193 25.3216 9.27028L27.091 -6.48499e-05Z"
      fill="white"
    />
  </g>
  <mask
    id="mask1_55_2298"
    style="mask-type: luminance"
    maskUnits="userSpaceOnUse"
    x="27"
    y="0"
    width="34"
    height="15"
  >
    <path
      d="M27.1831 6.10352e-05H61V14.6516H27.1831V6.10352e-05Z"
      fill="white"
    />
  </mask>
  <g mask="url(#mask1_55_2298)">
    <path
      d="M54.1086 13.9645C54.5533 14.3077 55.4827 14.6311 56.5336 14.651C58.5952 14.651 60.2723 13.4791 60.2723 11.4176C60.2723 10.3269 59.5249 9.47824 58.4336 8.85193C57.5646 8.36602 57.0997 7.92156 57.0997 7.2145C57.0997 6.36532 57.8271 5.73847 58.8382 5.73847C59.5651 5.73847 60.1916 5.9817 60.5355 6.18347L61 4.91039C60.6366 4.66771 59.8483 4.42502 58.959 4.42502C56.8976 4.42502 55.4223 5.73847 55.4223 7.45665C55.4223 8.44731 56.0483 9.31576 57.1803 9.94261C58.1911 10.5082 58.5343 10.9731 58.5343 11.741C58.5343 12.61 57.8069 13.338 56.6752 13.338C55.8867 13.338 55.0383 13.0142 54.5733 12.7317L54.1086 13.9645ZM52.8934 12.7113C52.3882 12.9544 51.6204 13.2574 50.63 13.2574C49.0339 13.2574 48.2051 12.2259 48.2051 10.6498C48.2051 8.34621 49.8017 5.84022 52.3475 5.84022C53.0758 5.84022 53.6206 6.02153 54.0046 6.20393L54.4901 4.87002C54.1873 4.70852 53.3579 4.44548 52.4487 4.44548C48.9327 4.44548 46.467 7.51737 46.467 10.852C46.467 12.9345 47.6999 14.6516 50.2262 14.6516C51.5398 14.6516 52.5501 14.2877 53.0555 14.0451L52.8934 12.7113ZM44.3272 5.90095C44.085 5.84022 43.7211 5.75893 43.1553 5.75893C40.6289 5.75893 38.5674 8.40693 38.547 11.1147C38.547 12.206 38.9314 13.2779 40.2249 13.2779C41.6195 13.2779 43.2765 11.4585 43.7616 8.85193L44.3272 5.90095ZM43.236 14.4293C43.236 13.8433 43.3376 12.9136 43.4582 11.9029H43.4177C42.3467 13.9241 41.0127 14.6516 39.6183 14.6516C37.9007 14.6516 36.8094 13.2779 36.8094 11.4176C36.8094 8.02277 39.3149 4.42502 43.5799 4.42502C44.5098 4.42502 45.5395 4.58696 46.2069 4.80929L45.2167 9.90223C44.8933 11.6 44.7512 13.3386 44.7922 14.4293H43.236ZM29.0489 10.6498C28.9677 10.9731 28.9073 11.3773 28.9274 11.8831C28.9274 12.8124 29.4531 13.338 30.5039 13.338C33.0304 13.338 34.5661 10.3269 34.5661 8.16425C34.5661 6.95136 34.0403 5.81976 32.707 5.81976C31.2514 5.81976 29.756 7.31506 29.2711 9.61971L29.0489 10.6498ZM31.1907 6.48499e-05L29.8771 6.42572H29.9175C30.7865 5.11271 32.0397 4.42502 33.3533 4.42502C35.4958 4.42502 36.3043 6.20393 36.3043 7.94202C36.3043 10.9327 34.1415 14.6516 30.221 14.6516C28.5028 14.6516 27.2097 13.9445 27.2097 12.1258C27.2097 11.6608 27.2904 11.0743 27.3717 10.6093L29.5129 6.48499e-05H31.1907Z"
      fill="#020202"
    />
  </g>
  <mask
    id="mask2_55_2298"
    style="mask-type: luminance"
    maskUnits="userSpaceOnUse"
    x="11"
    y="0"
    width="17"
    height="15"
  >
    <path d="M11 0H27.1V14.6515H11V0Z" fill="white" />
  </mask>
  <g mask="url(#mask2_55_2298)">
    <path
      d="M24.0639 4.78119C23.9368 2.37339 21.253 0.476387 17.6802 0H17.2835C20.7791 0.660837 23.3365 2.75755 23.3365 5.24416C23.3365 7.12925 21.868 8.79201 19.633 9.77368C22.3652 8.74178 24.173 6.84965 24.0639 4.78119ZM18.6285 0C22.1215 0.748949 24.662 2.83689 24.7979 5.42309C24.9788 8.84732 20.8753 11.8482 15.6321 12.1242C14.1851 12.2009 12.8028 12.0613 11.5561 11.748L11 14.649H19.3868C22.7131 14.6266 24.782 11.9183 25.3221 9.26883L27.0907 0H18.6285ZM16.8735 10.4613C20.1298 9.77325 22.4967 7.69927 22.4967 5.24416C22.4967 2.75614 20.065 0.659322 16.7399 0H15.9307C19.2752 0.532675 21.7782 2.68286 21.7782 5.25715C21.7782 7.95094 19.0376 10.1828 15.4604 10.5799C15.5505 10.5764 15.6411 10.5745 15.7324 10.5699C16.12 10.5496 16.5003 10.5117 16.8735 10.4613ZM13.5169 9.96495C12.9678 9.96495 12.4347 9.9157 11.9243 9.82488L13.7416 0.336859C17.316 0.423131 20.1772 2.54387 20.1772 5.14836C20.1772 7.80838 17.1953 9.96495 13.5169 9.96495Z"
      fill="#E41C3B"
    />
  </g>
</svg>
