<svg
  xmlns="http://www.w3.org/2000/svg"
  width="100%"
  height="100%"
  viewBox="0 0 72 28"
  fill="none"
>
  <path
    fill-rule="evenodd"
    clip-rule="evenodd"
    d="M18.6129 25.1715C18.6129 24.882 18.5447 24.6314 18.4085 24.4199C18.2722 24.2083 18.0929 24.0468 17.8705 23.9355C18.0929 23.8242 18.2653 23.6597 18.3878 23.4426C18.51 23.2255 18.5712 22.9806 18.5712 22.7078V22.5575C18.5712 22.2233 18.5073 21.9451 18.3794 21.7223C18.2514 21.4996 18.072 21.3213 17.8413 21.1878C17.6105 21.0541 17.3337 20.9582 17.0114 20.8995C16.6887 20.8411 16.3301 20.812 15.9352 20.812C15.8018 20.812 15.6627 20.8147 15.5182 20.8203C15.3734 20.8258 15.2331 20.8328 15.097 20.8411C14.9607 20.8494 14.8354 20.8593 14.7216 20.8704C14.6075 20.8817 14.5143 20.8928 14.442 20.9037C14.2808 20.9318 14.1668 20.9817 14.1001 21.0541C14.0334 21.1266 14 21.2575 14 21.4467V26.5245C14 26.7139 14.0346 26.8447 14.1043 26.917C14.1737 26.9895 14.2919 27.0394 14.4589 27.0673C14.5422 27.084 14.6423 27.0979 14.759 27.1091C14.8758 27.1202 15.0022 27.1299 15.1386 27.1383C15.2749 27.1466 15.4152 27.1535 15.5598 27.1593C15.7045 27.1646 15.8461 27.1676 15.9852 27.1676C16.3467 27.1676 16.6873 27.1397 17.0072 27.084C17.3268 27.0285 17.6048 26.9295 17.8413 26.7874C18.0777 26.6456 18.2653 26.4534 18.4044 26.2113C18.5433 25.969 18.6129 25.6642 18.6129 25.2967V25.1715ZM17.1949 22.7746C17.1949 22.8637 17.1811 22.9487 17.1532 23.0293C17.1253 23.11 17.0796 23.1795 17.0156 23.2383C16.9516 23.2966 16.8655 23.3439 16.757 23.38C16.6486 23.4162 16.5109 23.4343 16.3441 23.4343H15.4099V21.9895C15.4376 21.9895 15.4808 21.9883 15.5392 21.9853C15.5975 21.9825 15.6587 21.9812 15.7226 21.9812H16.0437C16.4719 21.9812 16.7709 22.0354 16.9405 22.144C17.1101 22.2526 17.1949 22.421 17.1949 22.6492V22.7746ZM16.9822 25.8062C17.1463 25.6782 17.2284 25.4971 17.2284 25.2634V25.1714C17.2284 24.971 17.1643 24.797 17.0364 24.6494C16.9084 24.502 16.6777 24.4282 16.3441 24.4282H15.4099V25.9898H15.5558C15.6197 25.9898 15.6864 25.9916 15.756 25.9942C15.8255 25.9969 15.8922 25.9985 15.9563 25.9985H16.0938C16.522 25.9985 16.8182 25.9343 16.9822 25.8062ZM23.1842 23.9438C23.1842 23.6377 23.1383 23.3772 23.0465 23.1629C22.9549 22.9487 22.8255 22.7732 22.6587 22.6367C22.4919 22.5004 22.2875 22.4003 22.0455 22.3362C21.8037 22.2722 21.5326 22.2401 21.2322 22.2401C20.954 22.2401 20.683 22.2597 20.419 22.2987C20.1546 22.3375 19.9447 22.3766 19.7892 22.4154C19.6835 22.4435 19.6307 22.5046 19.6307 22.5991V23.2756C19.6307 23.3314 19.6445 23.3705 19.6724 23.3925C19.7001 23.4149 19.7362 23.4261 19.7808 23.4261H19.8224C19.8893 23.4204 19.9726 23.4135 20.0727 23.4051C20.1728 23.3968 20.2854 23.3901 20.4107 23.3842C20.5357 23.3788 20.6663 23.3746 20.8026 23.3717C20.9388 23.3689 21.0737 23.3675 21.2073 23.3675C21.4018 23.3675 21.5548 23.4038 21.666 23.4761C21.7772 23.5486 21.8328 23.7045 21.8328 23.9438V24.2445H21.3824C20.6649 24.2445 20.1436 24.3572 19.8183 24.5827C19.493 24.8081 19.3303 25.1659 19.3303 25.6558V25.7313C19.3303 26.0039 19.3707 26.2321 19.4512 26.4158C19.5318 26.5996 19.639 26.7472 19.7724 26.8587C19.9059 26.9699 20.0573 27.0493 20.2271 27.0964C20.3966 27.1438 20.5733 27.1676 20.7567 27.1676C21.007 27.1676 21.2225 27.1341 21.4032 27.0673C21.5839 27.0005 21.7548 26.9086 21.9163 26.7917V26.9253C21.9163 26.9699 21.9329 27.0089 21.9663 27.0422C21.9998 27.0756 22.0386 27.0923 22.0831 27.0923H23.0174C23.0617 27.0923 23.1007 27.0756 23.1341 27.0422C23.1676 27.0089 23.1842 26.9699 23.1842 26.9253V23.9438ZM21.5367 26.0942C21.6506 26.0581 21.7578 26.015 21.8579 25.9648V25.0462H21.3824C21.2378 25.0462 21.1183 25.0587 21.0237 25.0837C20.9291 25.1088 20.8539 25.1465 20.7985 25.1966C20.7429 25.2465 20.7039 25.3107 20.6817 25.3886C20.6594 25.4666 20.6483 25.5556 20.6483 25.6558V25.7312C20.6483 25.9092 20.6913 26.0233 20.7775 26.0734C20.8638 26.1235 20.9958 26.1485 21.1739 26.1485C21.3017 26.1485 21.4226 26.1306 21.5367 26.0942ZM28.2893 26.917V24.1358C28.2893 23.8744 28.2685 23.6278 28.2268 23.3968C28.1851 23.166 28.11 22.9653 28.0016 22.7954C27.8932 22.6256 27.743 22.4905 27.5511 22.3904C27.3593 22.2902 27.1132 22.2401 26.8128 22.2401C26.5459 22.2401 26.3095 22.2723 26.1038 22.3369C25.8981 22.4014 25.6812 22.515 25.4532 22.6776V22.4752C25.4532 22.4305 25.4364 22.3911 25.4032 22.3575C25.3698 22.3238 25.3308 22.3068 25.2863 22.3068H24.3521C24.3074 22.3068 24.2686 22.3235 24.2354 22.357C24.2019 22.3904 24.1853 22.4295 24.1853 22.4739V26.917C24.1853 26.9615 24.2031 27.0019 24.2395 27.038C24.2755 27.0743 24.3159 27.0923 24.3604 27.0923H25.3698C25.4143 27.0923 25.4532 27.0743 25.4865 27.0382C25.5199 27.0021 25.5366 26.9619 25.5366 26.9173V23.6341C25.6812 23.5564 25.8173 23.4925 25.9454 23.4426C26.0732 23.3925 26.1983 23.3675 26.3207 23.3675C26.4486 23.3675 26.5528 23.38 26.6335 23.4051C26.7141 23.4301 26.7766 23.4731 26.8211 23.5345C26.8657 23.5954 26.8963 23.6759 26.9129 23.7757C26.9296 23.8758 26.9381 23.9981 26.9381 24.1425V26.9173C26.9381 26.9619 26.9547 27.0021 26.9881 27.0382C27.0214 27.0743 27.0602 27.0923 27.1049 27.0923H28.1142C28.1585 27.0923 28.1989 27.0743 28.2351 27.038C28.2713 27.0019 28.2893 26.9615 28.2893 26.917ZM32.3934 26.1071V26.8502C32.3934 26.9114 32.3793 26.9546 32.3516 26.9796C32.3237 27.0047 32.2792 27.0255 32.2181 27.0422C32.1013 27.0701 31.9498 27.0978 31.7636 27.1259C31.5772 27.1535 31.3589 27.1676 31.1086 27.1676C30.5192 27.1676 30.0478 26.9867 29.6948 26.6246C29.3416 26.2628 29.1651 25.7394 29.1651 25.0546V24.3531C29.1651 23.6682 29.3416 23.1448 29.6948 22.7831C30.0478 22.421 30.5192 22.2401 31.1086 22.2401C31.3589 22.2401 31.5772 22.254 31.7636 22.2817C31.9498 22.3098 32.1013 22.3375 32.2181 22.3653C32.2792 22.3819 32.3237 22.4029 32.3516 22.4279C32.3793 22.453 32.3934 22.4962 32.3934 22.5574V23.3007C32.3934 23.3453 32.378 23.38 32.3475 23.4051C32.3168 23.4301 32.2792 23.4426 32.2349 23.4426H32.2181C32.0624 23.4261 31.9137 23.4121 31.7719 23.401C31.63 23.3901 31.4395 23.3842 31.2004 23.3842C31.1059 23.3842 31.017 23.3996 30.9335 23.4301C30.85 23.4608 30.7778 23.5137 30.7166 23.5888C30.6553 23.6641 30.6068 23.7641 30.5706 23.8895C30.5344 24.0147 30.5164 24.1692 30.5164 24.3531V25.0546C30.5164 25.2382 30.5344 25.3927 30.5706 25.5181C30.6068 25.6433 30.6553 25.7436 30.7166 25.8187C30.7778 25.8939 30.85 25.9468 30.9335 25.9774C31.017 26.008 31.1059 26.0233 31.2004 26.0233C31.4395 26.0233 31.63 26.0178 31.7719 26.0067C31.9137 25.9956 32.0624 25.9815 32.2181 25.9649H32.2349C32.2792 25.9649 32.3168 25.9774 32.3475 26.0025C32.378 26.0276 32.3934 26.0623 32.3934 26.1071ZM37.0233 24.4115C37.0233 24.0773 36.9772 23.7768 36.8852 23.5095C36.7933 23.2423 36.6595 23.0155 36.4841 22.8289C36.3086 22.6424 36.0912 22.4976 35.8322 22.3946C35.5731 22.2918 35.2735 22.2401 34.9336 22.2401C34.5938 22.2401 34.2943 22.2918 34.0351 22.3946C33.776 22.4976 33.5572 22.6424 33.379 22.8289C33.2006 23.0155 33.0655 23.2423 32.9737 23.5095C32.8815 23.7768 32.8356 24.0773 32.8356 24.4115V24.9961C32.8356 25.3301 32.8815 25.6309 32.9737 25.8981C33.0655 26.1653 33.2006 26.3922 33.379 26.5788C33.5572 26.7654 33.776 26.91 34.0351 27.013C34.2943 27.1159 34.5938 27.1676 34.9336 27.1676C35.2735 27.1676 35.5731 27.1159 35.8322 27.013C36.0912 26.91 36.3086 26.7654 36.4841 26.5788C36.6595 26.3922 36.7933 26.1653 36.8852 25.8981C36.9772 25.6309 37.0233 25.3301 37.0233 24.9961V24.4115ZM34.9336 26.0233C35.4257 26.0233 35.6719 25.6809 35.6719 24.9961V24.4115C35.6719 23.7322 35.4257 23.3925 34.9336 23.3925C34.6902 23.3925 34.5051 23.4774 34.3779 23.6472C34.2506 23.8172 34.187 24.0719 34.187 24.4115V24.9961C34.187 25.3357 34.2506 25.5918 34.3779 25.7644C34.5051 25.9371 34.6902 26.0233 34.9336 26.0233ZM41.9863 26.917V24.1358C41.9863 23.8744 41.9651 23.6278 41.9237 23.3968C41.882 23.166 41.8068 22.9653 41.6982 22.7954C41.5898 22.6256 41.4398 22.4905 41.248 22.3904C41.0561 22.2902 40.8099 22.2401 40.5098 22.2401C40.2428 22.2401 40.0064 22.2723 39.8006 22.3369C39.5948 22.4014 39.378 22.515 39.15 22.6776V22.4752C39.15 22.4305 39.1334 22.3911 39.0998 22.3575C39.0667 22.3238 39.0275 22.3068 38.9832 22.3068H38.0489C38.0044 22.3068 37.9656 22.3235 37.9321 22.357C37.8989 22.3904 37.8821 22.4295 37.8821 22.4739V26.917C37.8821 26.9615 37.9001 27.0019 37.9363 27.038C37.9725 27.0743 38.0127 27.0923 38.0574 27.0923H39.0667C39.111 27.0923 39.15 27.0743 39.1834 27.0382C39.2167 27.0021 39.2335 26.9619 39.2335 26.9173V23.6341C39.378 23.5564 39.5143 23.4925 39.6421 23.4426C39.7701 23.3925 39.8952 23.3675 40.0177 23.3675C40.1455 23.3675 40.2498 23.38 40.3303 23.4051C40.4109 23.4301 40.4736 23.4731 40.5181 23.5345C40.5626 23.5954 40.5931 23.6759 40.6099 23.7757C40.6265 23.8758 40.6348 23.9981 40.6348 24.1425V26.9173C40.6348 26.9619 40.6515 27.0021 40.6849 27.0382C40.7183 27.0743 40.7571 27.0923 40.8016 27.0923H41.811C41.8555 27.0923 41.8958 27.0743 41.932 27.038C41.9681 27.0019 41.9863 26.9615 41.9863 26.917ZM45.6235 26.2893V26.9357C45.6235 27.0295 45.5707 27.0848 45.465 27.1011C45.337 27.1233 45.2258 27.1398 45.1314 27.1509C45.0368 27.162 44.9282 27.1675 44.8061 27.1675C44.5792 27.1675 44.3788 27.1493 44.2047 27.1133C44.0306 27.077 43.8853 27.0061 43.7692 26.9003C43.6533 26.7945 43.5648 26.6483 43.504 26.4617C43.4434 26.2753 43.4129 26.0347 43.4129 25.7394V23.3175L42.7457 23.2088C42.701 23.1977 42.6608 23.1769 42.6246 23.1462C42.5884 23.1157 42.5704 23.0781 42.5704 23.0335V22.4822C42.5704 22.4378 42.5884 22.3974 42.6246 22.3611C42.6608 22.325 42.701 22.3068 42.7457 22.3068H43.4129V21.622C43.4129 21.5774 43.4295 21.5414 43.4626 21.5134C43.4955 21.4857 43.5345 21.4663 43.5788 21.455L44.5903 21.2798H44.615C44.6592 21.2798 44.6952 21.2921 44.7229 21.3171C44.7505 21.3423 44.7643 21.3771 44.7643 21.4215V22.3068H45.4484C45.4927 22.3068 45.5317 22.3237 45.5651 22.3573C45.5985 22.3909 45.6152 22.4305 45.6152 22.4752V23.1573C45.6152 23.2024 45.5985 23.2416 45.5651 23.2752C45.5317 23.3089 45.4927 23.3257 45.4484 23.3257H44.7643V25.7561C44.7643 25.9231 44.7782 26.0304 44.8061 26.0776C44.8338 26.1249 44.9116 26.1485 45.0394 26.1485H45.4484C45.5651 26.1485 45.6235 26.1955 45.6235 26.2893ZM50.0777 23.9438C50.0777 23.6377 50.032 23.3772 49.94 23.1629C49.8484 22.9487 49.7192 22.7732 49.5524 22.6367C49.3856 22.5004 49.1812 22.4003 48.9392 22.3362C48.6974 22.2722 48.4263 22.2401 48.1259 22.2401C47.8476 22.2401 47.5767 22.2597 47.3127 22.2987C47.0483 22.3375 46.8384 22.3766 46.6829 22.4154C46.5769 22.4435 46.5244 22.5046 46.5244 22.5991V23.2756C46.5244 23.3314 46.538 23.3705 46.5659 23.3925C46.5938 23.4149 46.6299 23.4261 46.6744 23.4261H46.7161C46.783 23.4204 46.8663 23.4135 46.9664 23.4051C47.0665 23.3968 47.1791 23.3901 47.3042 23.3842C47.4294 23.3788 47.56 23.3746 47.6964 23.3717C47.8325 23.3689 47.9674 23.3675 48.1008 23.3675C48.2955 23.3675 48.4485 23.4038 48.5597 23.4761C48.6709 23.5486 48.7265 23.7045 48.7265 23.9438V24.2445H48.2761C47.5585 24.2445 47.0373 24.3572 46.712 24.5827C46.3867 24.8081 46.224 25.1659 46.224 25.6558V25.7313C46.224 26.0039 46.2642 26.2321 46.3449 26.4158C46.4253 26.5996 46.5327 26.7472 46.6661 26.8587C46.7996 26.9699 46.951 27.0493 47.1208 27.0964C47.2903 27.1438 47.4668 27.1676 47.6504 27.1676C47.9007 27.1676 48.1161 27.1341 48.2969 27.0673C48.4776 27.0005 48.6483 26.9086 48.81 26.7917V26.9253C48.81 26.9699 48.8266 27.0089 48.86 27.0422C48.8933 27.0756 48.9323 27.0923 48.9768 27.0923H49.9111C49.9554 27.0923 49.9944 27.0756 50.0279 27.0422C50.0611 27.0089 50.0777 26.9699 50.0777 26.9253V23.9438ZM48.4304 26.0942C48.5442 26.0581 48.6515 26.015 48.7516 25.9648V25.0462H48.2761C48.1315 25.0462 48.012 25.0587 47.9174 25.0837C47.8228 25.1088 47.7476 25.1465 47.6922 25.1966C47.6364 25.2465 47.5974 25.3107 47.5754 25.3886C47.5531 25.4666 47.542 25.5556 47.542 25.6558V25.7312C47.542 25.9092 47.585 26.0233 47.6712 26.0734C47.7575 26.1235 47.8895 26.1485 48.0676 26.1485C48.1954 26.1485 48.3161 26.1306 48.4304 26.0942ZM54.1819 26.8502V26.1071C54.1819 26.0623 54.1665 26.0276 54.136 26.0025C54.1054 25.9774 54.068 25.9649 54.0234 25.9649H54.0068C53.8511 25.9815 53.7023 25.9956 53.5604 26.0067C53.4187 26.0178 53.2282 26.0233 52.9892 26.0233C52.8944 26.0233 52.8054 26.008 52.7222 25.9774C52.6388 25.9468 52.5663 25.8939 52.5052 25.8187C52.4441 25.7436 52.3954 25.6433 52.3594 25.5181C52.323 25.3927 52.3051 25.2382 52.3051 25.0546V24.3531C52.3051 24.1692 52.323 24.0147 52.3594 23.8895C52.3954 23.7641 52.4441 23.6641 52.5052 23.5888C52.5663 23.5137 52.6388 23.4608 52.7222 23.4301C52.8054 23.3996 52.8944 23.3842 52.9892 23.3842C53.2282 23.3842 53.4187 23.3901 53.5604 23.401C53.7023 23.4121 53.8511 23.4261 54.0068 23.4426H54.0234C54.068 23.4426 54.1054 23.4301 54.136 23.4051C54.1665 23.38 54.1819 23.3453 54.1819 23.3007V22.5574C54.1819 22.4962 54.1681 22.453 54.1402 22.4279C54.1121 22.4029 54.068 22.3819 54.0068 22.3653C53.8901 22.3375 53.7383 22.3098 53.5521 22.2817C53.3657 22.254 53.1477 22.2401 52.8974 22.2401C52.3076 22.2401 51.8366 22.421 51.4834 22.7831C51.1302 23.1448 50.9537 23.6682 50.9537 24.3531V25.0546C50.9537 25.7394 51.1302 26.2628 51.4834 26.6246C51.8366 26.9867 52.3076 27.1676 52.8974 27.1676C53.1477 27.1676 53.3657 27.1535 53.5521 27.1259C53.7383 27.0978 53.8901 27.0701 54.0068 27.0422C54.068 27.0255 54.1121 27.0047 54.1402 26.9796C54.1681 26.9546 54.1819 26.9114 54.1819 26.8502ZM57.7771 26.2893V26.9357C57.7771 27.0295 57.7241 27.0848 57.6186 27.1011C57.4906 27.1233 57.3794 27.1398 57.285 27.1509C57.1903 27.162 57.0818 27.1675 56.9597 27.1675C56.7328 27.1675 56.5324 27.1493 56.3583 27.1133C56.184 27.077 56.0389 27.0061 55.923 26.9003C55.8069 26.7945 55.7184 26.6483 55.6576 26.4617C55.597 26.2753 55.5665 26.0347 55.5665 25.7394V23.3175L54.8993 23.2088C54.8546 23.1977 54.8144 23.1769 54.7782 23.1462C54.742 23.1157 54.724 23.0781 54.724 23.0335V22.4822C54.724 22.4378 54.742 22.3974 54.7782 22.3611C54.8144 22.325 54.8546 22.3068 54.8993 22.3068H55.5665V21.622C55.5665 21.5774 55.5831 21.5414 55.6162 21.5134C55.6491 21.4857 55.6879 21.4663 55.7323 21.455L56.7437 21.2798H56.7686C56.8128 21.2798 56.8488 21.2921 56.8762 21.3171C56.9041 21.3423 56.918 21.3771 56.918 21.4215V22.3068H57.602C57.6463 22.3068 57.6853 22.3237 57.7187 22.3573C57.752 22.3909 57.7688 22.4305 57.7688 22.4752V23.1573C57.7688 23.2024 57.752 23.2416 57.7187 23.2752C57.6853 23.3089 57.6463 23.3257 57.602 23.3257H56.918V25.7561C56.918 25.9231 56.9318 26.0304 56.9597 26.0776C56.9874 26.1249 57.0652 26.1485 57.1932 26.1485H57.602C57.7187 26.1485 57.7771 26.1955 57.7771 26.2893Z"
    fill="#005697"
  />
  <path
    d="M53.0074 4.73981H39.4551L38.0768 6.29351L33.6042 11.3349V11.3351L32.2259 12.8886H18.8527L20.2097 11.3153L20.8519 10.5706L22.2089 8.99735H16.0469C14.9212 8.99735 14 9.94303 14 11.0987V15.5326C14 16.6885 14.9212 17.6342 16.0469 17.6342H39.6378C40.7636 17.6342 42.3014 16.9318 43.0552 16.0734L46.6237 12.0097L53.0074 4.73981Z"
    fill="#005697"
  />
  <path
    d="M55.7305 0C56.8562 0 57.7774 0.945676 57.7774 2.10154V6.53527C57.7774 7.69096 56.8562 8.63681 55.7305 8.63681H49.5885L50.9583 7.07531H50.9585L51.6377 6.30115L53.0075 4.73983H39.4553L32.2261 12.8945H18.77L28.42 1.97009L28.7852 1.55665C29.5416 0.700456 31.0815 0 32.2073 0H55.7305V0Z"
    fill="#FBD500"
  />
</svg>
