<svg
  xmlns="http://www.w3.org/2000/svg"
  width="100%"
  height="100%"
  viewBox="0 0 72 16"
  fill="none"
>
  <path
    fill-rule="evenodd"
    clip-rule="evenodd"
    d="M23.2505 15.5165H19.0099L15.8299 3.38475C15.679 2.82669 15.3585 2.33333 14.8871 2.1008C13.7106 1.51646 12.4142 1.05141 11 0.81686V0.349787H17.8313C18.7742 0.349787 19.4813 1.05141 19.5991 1.86626L21.2491 10.6173L25.4877 0.349787H29.6104L23.2505 15.5165ZM31.9675 15.5165H27.9626L31.2604 0.349787H35.2653L31.9675 15.5165ZM40.4467 4.55143C40.5646 3.73456 41.2717 3.26748 42.0967 3.26748C43.3931 3.15021 44.8052 3.38476 45.9838 3.96708L46.6909 0.701619C45.5123 0.234547 44.216 0 43.0395 0C39.1524 0 36.3239 2.10081 36.3239 5.01648C36.3239 7.23457 38.3274 8.39921 39.7417 9.10083C41.2717 9.80043 41.861 10.2675 41.7431 10.9671C41.7431 12.0165 40.5646 12.4836 39.3881 12.4836C37.9739 12.4836 36.5596 12.1338 35.2653 11.5494L34.5582 14.8169C35.9724 15.3992 37.5025 15.6338 38.9167 15.6338C43.2752 15.749 45.9838 13.6502 45.9838 10.5C45.9838 6.53295 40.4467 6.30042 40.4467 4.55143ZM60 15.5165L56.82 0.349787H53.4044C52.6972 0.349787 51.9901 0.81686 51.7544 1.51646L45.8659 15.5165H49.9887L50.8116 13.3004H55.8772L56.3486 15.5165H60ZM53.9936 4.43416L55.1701 10.1502H51.8723L53.9936 4.43416Z"
    fill="#172B85"
  />
</svg>
