<svg
  width="100%"
  height="100%"
  viewBox="0 0 24 24"
  fill="none"
  xmlns="http://www.w3.org/2000/svg"
>
  <path
    fill-rule="evenodd"
    clip-rule="evenodd"
    d="M13.793 1.79288C15.012 0.573933 16.9883 0.573931 18.2072 1.79288C19.4262 3.01183 19.4262 4.98815 18.2072 6.2071L5.64449 18.7698C5.62469 18.7896 5.60507 18.8093 5.58561 18.8288C5.29817 19.1168 5.04473 19.3707 4.7392 19.5579C4.47078 19.7224 4.17815 19.8436 3.87204 19.9171C3.5236 20.0008 3.16485 20.0004 2.75796 20C2.73041 20 2.70265 20 2.67464 20H1.0001C0.447817 20 0.00010175 19.5523 0.00010175 19V17.3255C0.00010175 17.2975 7.5882e-05 17.2697 5.0252e-05 17.2422C-0.000328357 16.8353 -0.000662141 16.4765 0.0829922 16.1281C0.156482 15.822 0.277695 15.5293 0.442182 15.2609C0.629417 14.9554 0.883325 14.7019 1.17131 14.4145C1.1908 14.395 1.21046 14.3754 1.23026 14.3556L13.793 1.79288ZM16.793 3.2071C16.3551 2.76919 15.6451 2.76919 15.2072 3.2071L2.64447 15.7698C2.26491 16.1494 2.19492 16.2285 2.14746 16.3059C2.09263 16.3954 2.05223 16.4929 2.02773 16.595C2.00653 16.6833 2.0001 16.7887 2.0001 17.3255V18H2.67464C3.21143 18 3.31683 17.9936 3.40515 17.9724C3.50718 17.9479 3.60473 17.9075 3.6942 17.8526C3.77164 17.8052 3.85072 17.7352 4.23028 17.3556L16.793 4.79288C17.2309 4.35498 17.2309 3.645 16.793 3.2071ZM19.6748 16.2619C20.0824 16.6345 20.1108 17.2671 19.7382 17.6747L18.7381 18.7688L18.738 18.7688C18.0284 19.5449 17.0459 20 16.0002 20C14.9549 20 13.9726 19.5451 13.263 18.7695C12.9111 18.3862 12.4549 18.1901 12.0003 18.1901C11.5454 18.1901 11.0889 18.3865 10.7369 18.7701C10.3635 19.177 9.73097 19.2043 9.32402 18.8309C8.91707 18.4575 8.88985 17.8249 9.26323 17.418C9.97355 16.6438 10.9555 16.1901 12.0003 16.1901C13.045 16.1901 14.027 16.6438 14.7373 17.418L14.7385 17.4192C15.0897 17.8034 15.5458 18 16.0002 18C16.4546 18 16.9107 17.8034 17.2619 17.4193C17.2619 17.4193 17.2619 17.4193 17.262 17.4192L18.262 16.3253C18.6346 15.9177 19.2672 15.8893 19.6748 16.2619Z"
    fill="currentColor"
  />
</svg>
