<svg
  width="100%"
  height="100%"
  viewBox="0 0 24 24"
  fill="none"
  xmlns="http://www.w3.org/2000/svg"
>
  <path
    transform="translate(1.598 1.299) scale(1.47151)"
    fill-rule="evenodd"
    clip-rule="evenodd"
    d="M11.1953 0.609474C12.0079 -0.203159 13.3254 -0.203158 14.1381 0.609476C14.9507 1.42211 14.9507 2.73965 14.1381 3.55229L7.76291 9.92745C7.74971 9.94064 7.73664 9.95374 7.72367 9.96674C7.53203 10.1587 7.36307 10.328 7.15938 10.4528C6.98043 10.5625 6.78535 10.6433 6.58127 10.6923C6.34898 10.7481 6.10981 10.7478 5.83854 10.7476C5.82018 10.7476 5.80167 10.7475 5.78301 10.7475H4.66665C4.29846 10.7475 3.99998 10.4491 3.99998 10.0809V8.96454C3.99998 8.94587 3.99997 8.92736 3.99995 8.909C3.9997 8.63774 3.99947 8.39857 4.05524 8.16628C4.10424 7.9622 4.18505 7.76711 4.2947 7.58817C4.41953 7.38447 4.5888 7.21552 4.78079 7.02388C4.79379 7.01091 4.80689 6.99783 4.82009 6.98464L11.1953 0.609474ZM13.1953 1.55229C12.9033 1.26035 12.43 1.26035 12.1381 1.55228L5.76289 7.92745C5.50985 8.18049 5.46319 8.23321 5.43156 8.28483C5.395 8.34448 5.36807 8.40951 5.35174 8.47754C5.3376 8.53642 5.33332 8.60668 5.33332 8.96454V9.41421H5.78301C6.14086 9.41421 6.21113 9.40993 6.27001 9.39579C6.33804 9.37946 6.40307 9.35253 6.46272 9.31597C6.51434 9.28434 6.56706 9.23768 6.8201 8.98464L13.1953 2.60948C13.4872 2.31754 13.4872 1.84422 13.1953 1.55229ZM3.83913 1.41421L6.66667 1.41421C7.03486 1.41421 7.33333 1.71269 7.33333 2.08088C7.33333 2.44907 7.03486 2.74755 6.66667 2.74755H3.86667C3.29561 2.74755 2.90742 2.74807 2.60736 2.77258C2.31508 2.79646 2.16561 2.83975 2.06135 2.89287C1.81046 3.0207 1.60649 3.22468 1.47866 3.47556C1.42553 3.57983 1.38225 3.7293 1.35837 4.02157C1.33385 4.32163 1.33333 4.70983 1.33333 5.28088V10.8809C1.33333 11.4519 1.33385 11.8401 1.35837 12.1402C1.38225 12.4325 1.42553 12.5819 1.47866 12.6862C1.60649 12.9371 1.81046 13.1411 2.06135 13.2689C2.16561 13.322 2.31508 13.3653 2.60736 13.3892C2.90742 13.4137 3.29561 13.4142 3.86667 13.4142H9.46667C10.0377 13.4142 10.4259 13.4137 10.726 13.3892C11.0183 13.3653 11.1677 13.322 11.272 13.2689C11.5229 13.1411 11.7268 12.9371 11.8547 12.6862C11.9078 12.5819 11.9511 12.4325 11.975 12.1402C11.9995 11.8401 12 11.4519 12 10.8809V8.08088C12 7.71269 12.2985 7.41421 12.6667 7.41421C13.0349 7.41421 13.3333 7.71269 13.3333 8.08088V10.9084C13.3333 11.4451 13.3333 11.888 13.3039 12.2488C13.2733 12.6235 13.2075 12.968 13.0427 13.2915C12.787 13.7933 12.3791 14.2012 11.8773 14.4569C11.5538 14.6218 11.2093 14.6875 10.8346 14.7181C10.4738 14.7476 10.0309 14.7476 9.49422 14.7475H3.83912C3.30248 14.7476 2.85958 14.7476 2.49878 14.7181C2.12405 14.6875 1.77958 14.6218 1.45603 14.4569C0.954261 14.2012 0.546312 13.7933 0.29065 13.2915C0.125789 12.968 0.0600798 12.6235 0.029463 12.2488C-1.52091e-05 11.888 -8.21607e-06 11.4451 2.87527e-07 10.9084V5.25335C-8.21607e-06 4.7167 -1.52091e-05 4.27379 0.029463 3.913C0.0600798 3.53827 0.125789 3.1938 0.29065 2.87024C0.546312 2.36847 0.95426 1.96053 1.45603 1.70486C1.77958 1.54 2.12405 1.47429 2.49878 1.44368C2.85958 1.4142 3.30249 1.41421 3.83913 1.41421Z"
    fill="currentColor"
  />
</svg>
