<svg
  width="100%"
  height="100%"
  viewBox="0 0 24 24"
  fill="none"
  xmlns="http://www.w3.org/2000/svg"
>
  <path
    d="M18 4C18.9926 4 18.9999 4.90069 19 4.91406V16.0859L20.293 14.793C20.6835 14.4024 21.3165 14.4024 21.707 14.793C22.0976 15.1835 22.0976 15.8165 21.707 16.207L18.707 19.207C18.5195 19.3946 18.2652 19.5 18 19.5C17.7348 19.5 17.4805 19.3946 17.293 19.207L14.293 16.207C13.9024 15.8165 13.9024 15.1835 14.293 14.793C14.6835 14.4024 15.3165 14.4024 15.707 14.793L17 16.0859V4.91406C17.0001 4.90068 17.0074 4 18 4ZM11 16.5C11.5523 16.5 12 16.9477 12 17.5C12 18.0523 11.5523 18.5 11 18.5H3C2.44772 18.5 2 18.0523 2 17.5C2 16.9477 2.44771 16.5 3 16.5H11ZM11 12.5C11.5523 12.5 12 12.9477 12 13.5C12 14.0523 11.5523 14.5 11 14.5H3C2.44772 14.5 2 14.0523 2 13.5C2 12.9477 2.44771 12.5 3 12.5H11ZM11 8.5C11.5523 8.5 12 8.94772 12 9.5C12 10.0523 11.5523 10.5 11 10.5H3C2.44771 10.5 2 10.0523 2 9.5C2 8.94772 2.44771 8.5 3 8.5H11ZM11 4.5C11.5523 4.5 12 4.94772 12 5.5C12 6.05228 11.5523 6.5 11 6.5H3C2.44771 6.5 2 6.05228 2 5.5C2 4.94772 2.44771 4.5 3 4.5H11Z"
    fill="currentColor"
  />
</svg>
